<?xml version="1.0" standalone="no"?>
<!DOCTYPE svg PUBLIC "-//W3C//DTD SVG 20010904//EN"
 "http://www.w3.org/TR/2001/REC-SVG-20010904/DTD/svg10.dtd">
<svg version="1.0" xmlns="http://www.w3.org/2000/svg"
 width="137.000000pt" height="137.000000pt" viewBox="0 0 137.000000 137.000000"
 preserveAspectRatio="xMidYMid meet">
<metadata>
Created by potrace 1.16, written by Peter Selinger 2001-2019
</metadata>
<g transform="translate(0.000000,137.000000) scale(0.100000,-0.100000)"
fill="#000000" stroke="none">
<path d="M567 920 c-94 -36 -140 -87 -118 -129 8 -14 8 -22 0 -26 -6 -4 -8
-18 -5 -30 5 -18 1 -25 -14 -30 -24 -8 -27 -52 -5 -81 31 -40 22 -44 -110 -44
-74 0 -125 -4 -125 -10 0 -6 177 -9 480 -10 307 0 480 4 480 10 0 6 -50 10
-125 10 -69 0 -125 4 -125 9 0 5 7 14 15 21 8 7 12 17 8 24 -4 6 -6 23 -4 38
1 16 -2 28 -8 28 -10 0 -11 12 -12 93 -1 105 -197 180 -332 127z m218 -24 c59
-28 100 -68 92 -90 -9 -24 -405 -24 -414 0 -8 22 33 62 92 90 37 17 68 24 115
24 47 0 78 -7 115 -24z m102 -203 c7 -3 13 -11 13 -19 0 -16 -28 -18 -50 -4
-10 6 -20 4 -31 -6 -13 -12 -21 -13 -43 -3 -22 10 -29 9 -45 -5 -14 -13 -25
-15 -38 -9 -10 5 -73 9 -140 9 -108 -1 -123 1 -123 16 0 9 6 19 13 21 15 7
427 6 444 0z"/>
</g>
</svg>
